<?xml version="1.0" encoding="utf-8"?>
<!-- Generator: Adobe Illustrator 18.1.1, SVG Export Plug-In . SVG Version: 6.00 Build 0)  -->
<!DOCTYPE svg PUBLIC "-//W3C//DTD SVG 1.1//EN" "http://www.w3.org/Graphics/SVG/1.1/DTD/svg11.dtd">
<svg version="1.1" xmlns="http://www.w3.org/2000/svg" xmlns:xlink="http://www.w3.org/1999/xlink" x="0px" y="0px" width="79.1px"
	 height="79.1px" viewBox="0 0 79.1 79.1" style="enable-background:new 0 0 79.1 79.1;" xml:space="preserve">
<style type="text/css">
	.st0{fill:#C77967;}
	.st1{fill:#FFFFFF;}
</style>
<g id="Layer_1">
</g>
<g id="Website">
	<circle class="st0" cx="39.7" cy="39.6" r="39.6"/>
	<path class="st1" d="M67.5,22.3c-2,0.9-4.2,1.5-6.5,1.8c2.4-1.4,4.2-3.6,5-6.3c-2.2,1.3-4.6,2.3-7.2,2.8c-2.1-2.2-5-3.6-8.3-3.6
		C44.1,17,39,22.1,39,28.4c0,0.9,0.1,1.8,0.3,2.6c-9.5-0.5-17.9-5-23.5-11.9c-1,1.7-1.5,3.6-1.5,5.7c0,4,2,7.4,5.1,9.5
		c-1.9-0.1-3.6-0.6-5.2-1.4c0,0,0,0.1,0,0.1c0,5.5,3.9,10.1,9.1,11.2c-1,0.3-2,0.4-3,0.4c-0.7,0-1.4-0.1-2.1-0.2
		c1.5,4.5,5.7,7.8,10.7,7.9c-3.9,3.1-8.8,4.9-14.2,4.9c-0.9,0-1.8-0.1-2.7-0.2c5,3.2,11,5.1,17.5,5.1c21,0,32.4-17.4,32.4-32.4
		c0-0.5,0-1,0-1.5C64,26.6,65.9,24.6,67.5,22.3z"/>
	<g>
	</g>
	<g>
	</g>
	<g>
	</g>
	<g>
	</g>
	<g>
	</g>
	<g>
	</g>
</g>
</svg>
