<svg xmlns="http://www.w3.org/2000/svg" width="79.1" height="79.1" viewBox="0 0 79.1 79.1"><style type="text/css">.st0{fill:#C77967;} .st1{fill:#FFFFFF;}</style><g id="Website"><circle class="st0" cx="39.7" cy="39.6" r="39.6"/><path class="st1" d="M67.5 22.3c-2 .9-4.2 1.5-6.5 1.8 2.4-1.4 4.2-3.6 5-6.3-2.2 1.3-4.6 2.3-7.2 2.8-2.1-2.2-5-3.6-8.3-3.6-6.4 0-11.5 5.1-11.5 11.4 0 .9.1 1.8.3 2.6-9.5-.5-17.9-5-23.5-11.9-1 1.7-1.5 3.6-1.5 5.7 0 4 2 7.4 5.1 9.5-1.9-.1-3.6-.6-5.2-1.4v.1c0 5.5 3.9 10.1 9.1 11.2-1 .3-2 .4-3 .4-.7 0-1.4-.1-2.1-.2 1.5 4.5 5.7 7.8 10.7 7.9-3.9 3.1-8.8 4.9-14.2 4.9-.9 0-1.8-.1-2.7-.2 5 3.2 11 5.1 17.5 5.1 21 0 32.4-17.4 32.4-32.4v-1.5c2.1-1.6 4-3.6 5.6-5.9z"/></g></svg>